Coordinates
version=1
nRows=19
nColumns=24
inDegrees=yes

Units are S.I. units (second, meters, Newtons, ...)
Angles are in degrees.

endheader
time	pelvis_tilt	pelvis_list	pelvis_rotation	pelvis_tx	pelvis_ty	pelvis_tz	hip_flexion_r	hip_adduction_r	hip_rotation_r	knee_angle_r	ankle_angle_r	subtalar_angle_r	mtp_angle_r	hip_flexion_l	hip_adduction_l	hip_rotation_l	knee_angle_l	ankle_angle_l	subtalar_angle_l	mtp_angle_l	lumbar_extension	lumbar_bending	lumbar_rotation
      2.13500000	     22.89164486	     -4.48281925	      8.22700613	      0.31199100	      1.03244362	      0.04507730	    -15.57518672	      9.31605417	    -10.32151313	    -12.81279497	      9.83131472	     -7.69034259	      5.60406813	     -6.67511047	    -12.40614226	     -1.42799378	    -60.57705467	     -1.07692701	    -14.67417900	     39.27263388	    -38.48808437	      6.04560102	     -0.24234822
      2.14000000	     22.97351103	     -4.42145241	      8.08667611	      0.31727872	      1.03300846	      0.04560151	    -16.15693139	      9.33318993	     -9.97986490	    -12.54124683	      9.92444017	     -7.89153114	      5.38459797	     -6.17395614	    -12.33306785	     -1.69566184	    -60.46067032	     -0.51995760	    -14.52298269	     38.49711095	    -38.59513758	      5.88853723	     -0.05583661
      2.14500000	     22.96932516	     -4.25341324	      8.00435372	      0.32250263	      1.03346393	      0.04594942	    -16.62366292	      9.22081666	     -9.83023117	    -12.33698626	     10.14199782	     -7.91577997	      5.36945098	     -5.57530082	    -12.09675110	     -1.83589880	    -60.27572710	     -0.13033605	    -14.49299736	     38.40378461	    -38.62084880	      5.67044253	     -0.04697097
      2.15000000	     23.05684086	     -4.13569749	      7.85717416	      0.32775961	      1.03401878	      0.04641632	    -17.21402157	      9.16048294	     -9.51538237	    -12.08024479	     10.27866549	     -7.95853153	      5.29773613	     -5.13309520	    -11.93686389	     -2.08625178	    -59.99371807	      0.28847947	    -14.32512620	     38.16575319	    -38.74162458	      5.46284316	      0.07200683
      2.15500000	     23.10352071	     -4.02048783	      7.73962289	      0.33300720	      1.03447718	      0.04680545	    -17.74911856	      9.09868301	     -9.26894523	    -11.84318644	     10.49087291	     -8.00058151	      4.62149235	     -4.64374446	    -11.76327315	     -2.30335755	    -59.68577514	      0.91790868	    -14.04858488	     35.79092225	    -38.81538973	      5.27544246	      0.14925966
      2.16000000	     23.15891283	     -3.88808499	      7.60530220	      0.33824099	      1.03494539	      0.04720294	    -18.29431720	      9.00982407	     -9.01662379	    -11.60706990	     10.64118521	     -8.03474124	      4.61250914	     -4.20107745	    -11.56682262	     -2.53773294	    -59.26649902	      1.28336321	    -13.91764466	     35.80167217	    -38.90222472	      5.06401377	      0.23139168
      2.16500000	     23.23478257	     -3.76710092	      7.46311590	      0.34347986	      1.03540498	      0.04760075	    -18.86654669	      8.92942504	     -8.75581689	    -11.35854702	     10.77416050	     -8.08625966	      4.58964479	     -3.80883511	    -11.38499102	     -2.80023378	    -58.77152345	      1.65238725	    -13.80720201	     35.76383132	    -39.00977022	      4.85916964	      0.31527923
      2.17000000	     23.29720878	     -3.63651739	      7.31961290	      0.34868116	      1.03582436	      0.04797080	    -19.41723668	      8.83046753	     -8.49660099	    -11.12211602	     10.91943275	     -8.12108514	      4.56580960	     -3.42055431	    -11.18004832	     -3.05391007	    -58.21107411	      1.99412304	    -13.68395055	     35.69243649	    -39.10619927	      4.64588976	      0.40092323
      2.17500000	     23.36458642	     -3.50250683	      7.17745163	      0.35387933	      1.03622560	      0.04830678	    -19.97576496	      8.72303532	     -8.25118903	    -10.88141786	     11.06397534	     -8.14032282	      4.54039307	     -3.06246304	    -10.96482290	     -3.30916119	    -57.57708997	      2.32223173	    -13.56749734	     35.59031624	    -39.20749051	      4.43319250	      0.47853707
      2.18000000	     23.44261939	     -3.37590642	      7.04420390	      0.35907422	      1.03660531	      0.04861356	    -20.54675238	      8.62221498	     -8.02063464	    -10.63473971	     11.20074096	     -8.14907338	      4.51148630	     -2.73730048	    -10.75811923	     -3.56714040	    -56.87483878	      2.64778445	    -13.44951444	     35.44992904	    -39.31647837	      4.23394183	      0.54651921
      2.18500000	     23.51464026	     -3.24832418	      6.90815189	      0.36424792	      1.03694947	      0.04889553	    -21.10661210	      8.51248616	     -7.80271128	    -10.39404915	     11.33836106	     -8.14493325	      4.47786943	     -2.42906916	    -10.54477186	     -3.83626515	    -56.10326496	      2.95691863	    -13.34933232	     35.25059513	    -39.42279314	      4.03428203	      0.60581073
      2.19000000	     23.59011195	     -3.09537233	      6.80999609	      0.36940331	      1.03727389	      0.04906322	    -21.67164185	      8.38046029	     -7.67130076	    -10.15143079	     11.47966329	     -8.06852057	      4.18361899	     -2.13960371	    -10.28395715	     -4.04462636	    -55.27600838	      3.37577934	    -13.17497795	     33.57605517	    -39.53239518	      3.83868555	      0.62332523
      2.19500000	     23.61459133	     -2.99983179	      6.69401608	      0.37453395	      1.03746818	      0.04929646	    -22.16398954	      8.29869240	     -7.43740502	     -9.92656138	     11.65178146	     -8.07850613	      4.18911924	     -1.80207511	    -10.09533248	     -4.28909139	    -54.39988154	      3.65971833	    -13.02850862	     33.54707775	    -39.58665161	      3.67762357	      0.67528937
      2.20000000	     23.70575828	     -2.87064145	      6.57766658	      0.37967942	      1.03773816	      0.04947910	    -22.74592855	      8.18302783	     -7.24986766	     -9.67599515	     11.77934218	     -8.06419712	      4.19121787	     -1.58906855	     -9.86768161	     -4.54588912	    -53.41500833	      3.90243383	    -12.93460320	     33.46343783	    -39.70991003	      3.49368793	      0.71370828
      2.20500000	     23.73182646	     -2.74903244	      6.48909264	      0.38479321	      1.03787158	      0.04958916	    -23.23301200	      8.07225069	     -7.13002514	     -9.46301510	     11.92649270	     -8.06559554	      4.19929479	     -1.30737189	     -9.63163532	     -4.76262135	    -52.38865800	      4.16148719	    -12.86323360	     33.38843852	    -39.76649991	      3.33156847	      0.72798834
      2.21000000	     23.85762705	     -2.62520103	      6.38572536	      0.38993285	      1.03812929	      0.04971018	    -23.86417139	      7.96156610	     -6.94270435	     -9.18671568	     12.03204387	     -7.97983300	      4.20679226	     -1.18912532	     -9.40472801	     -5.01229815	    -51.25533048	      4.34020112	    -12.77519340	     33.22944425	    -39.92606484	      3.16410649	      0.74387321
      2.21500000	     23.92692425	     -2.50692742	      6.30384896	      0.39505874	      1.03826881	      0.04976411	    -24.41546549	      7.85371982	     -6.81373994	     -8.93977891	     12.15492441	     -7.91790854	      4.21749174	     -1.02101912	     -9.16932693	     -5.23181989	    -50.07235051	      4.53602078	    -12.68255169	     33.04124572	    -40.02414726	      3.01467379	      0.74271130
      2.22000000	     23.99336643	     -2.39952287	      6.22933311	      0.40017576	      1.03836536	      0.04978904	    -24.96009485	      7.75600783	     -6.69834538	     -8.69512878	     12.26781197	     -7.85757080	      4.22871573	     -0.87472162	     -8.94140637	     -5.44504237	    -48.82495138	      4.72719684	    -12.57916985	     32.80788747	    -40.11826894	      2.87860743	      0.74205695
      2.22500000	     24.05746940	     -2.28396192	      6.15554656	      0.40527978	      1.03842828	      0.04977568	    -25.49663132	      7.64647636	     -6.58577476	     -8.46251165	     12.39442786	     -7.81225230	      4.24319730	     -0.75606950	     -8.69378711	     -5.64035359	    -47.50895136	      4.88197055	    -12.42727561	     32.59418433	    -40.21070946	      2.74002106	      0.72593014
